<svg xmlns="http://www.w3.org/2000/svg" width="38.61" height="34.686" viewBox="0 0 38.61 34.686"><path d="M166.832,62.165a.832.832,0,1,0-.832-.832A.833.833,0,0,0,166.832,62.165Zm0,0" transform="translate(-153.535 -55.506)"></path><path d="M67.909,65.494a.832.832,0,0,1,0-1.665,1.337,1.337,0,0,1,.9.435.832.832,0,1,0,1.157-1.2,3.212,3.212,0,0,0-1.225-.766v-.97a.832.832,0,1,0-1.665,0v.975a2.5,2.5,0,0,0,.832,4.851.832.832,0,0,1,0,1.665,1.507,1.507,0,0,1-1.081-.629.832.832,0,1,0-1.274,1.071,3.449,3.449,0,0,0,1.523,1.084v.971a.832.832,0,1,0,1.665,0v-.975a2.5,2.5,0,0,0-.832-4.851Zm0,0" transform="translate(-59.919 -55.506)"></path><path d="M195.329,340.5a3.329,3.329,0,1,0,3.329,3.329A3.333,3.333,0,0,0,195.329,340.5Zm0,4.994a1.665,1.665,0,1,1,1.665-1.665A1.667,1.667,0,0,1,195.329,345.494Zm0,0" transform="translate(-177.799 -315.799)"></path><path d="M395.329,347.159A3.329,3.329,0,1,0,392,343.829,3.333,3.333,0,0,0,395.329,347.159Zm0-4.994a1.665,1.665,0,1,1-1.665,1.665A1.667,1.667,0,0,1,395.329,342.165Zm0,0" transform="translate(-363.378 -315.799)"></path><path d="M36.348.5H2.262A2.265,2.265,0,0,0,0,2.762V17.844a2.265,2.265,0,0,0,2.262,2.262H20.826l-1.442,2.059a2.141,2.141,0,0,1-1.777.958,6.012,6.012,0,0,0-6.029,4.837,6.042,6.042,0,0,0,7.113,7.112,6.015,6.015,0,0,0,4.707-4.65,6.186,6.186,0,0,0,.052-2.236,2.437,2.437,0,0,1,.338-1.794l1.248-1.782,1.248,1.782a2.438,2.438,0,0,1,.338,1.794,6.187,6.187,0,0,0,.052,2.236,6.014,6.014,0,0,0,4.707,4.65,6.21,6.21,0,0,0,1.177.113,6.032,6.032,0,1,0-.094-12.062,2.152,2.152,0,0,1-1.776-.958l-1.442-2.059h7.1a2.265,2.265,0,0,0,2.262-2.262V2.762A2.265,2.265,0,0,0,36.348.5Zm-13.8,25.029a3.928,3.928,0,0,0-.591,2.9,4.683,4.683,0,0,1-.041,1.693,4.529,4.529,0,1,1-4.341-5.489,3.649,3.649,0,0,0,3.04-1.6L29.38,10.519a3.775,3.775,0,0,1,.352,4.757Zm9.875-.9a4.527,4.527,0,1,1-4.276,5.488,4.686,4.686,0,0,1-.041-1.693,3.929,3.929,0,0,0-.591-2.9L25.957,23.3,27.8,20.668l1.655,2.363A3.655,3.655,0,0,0,32.428,24.632ZM37.1,17.844a.755.755,0,0,1-.754.754h-7.1l1.72-2.456a5.276,5.276,0,0,0,.342-.56h2.023a.754.754,0,0,0,0-1.508h-1.5A5.309,5.309,0,0,0,31.11,10.3h2.221a.754.754,0,0,0,0-1.508H29.68l-.008-.006a.754.754,0,0,0-1.051.185L21.882,18.6H2.262a.755.755,0,0,1-.754-.754V2.762a.755.755,0,0,1,.754-.754H23.528v.754a.754.754,0,0,0,1.508,0V2.008H36.348a.755.755,0,0,1,.754.754Zm0,0" transform="translate(0 -0.5)"></path><path d="M312.832,60.5a.832.832,0,0,0-.832.832V63a.832.832,0,1,0,1.665,0V61.332A.832.832,0,0,0,312.832,60.5Zm0,0" transform="translate(-288.571 -55.506)"></path><path d="M312.832,120.5a.832.832,0,0,0-.832.832V123a.832.832,0,1,0,1.665,0v-1.665A.832.832,0,0,0,312.832,120.5Zm0,0" transform="translate(-288.571 -111.54)"></path><path d="M173.99,180.5h-7.158a.832.832,0,0,0,0,1.665h7.158a.832.832,0,0,0,0-1.665Zm0,0" transform="translate(-153.821 -166.99)"></path><path d="M173.99,120.5h-7.158a.832.832,0,0,0,0,1.665h7.158a.832.832,0,0,0,0-1.665Zm0,0" transform="translate(-153.821 -111.493)"></path><path d="M377.826,60.5h-4.994a.832.832,0,1,0,0,1.665h4.994a.832.832,0,0,0,0-1.665Zm0,0" transform="translate(-345.042 -55.506)"></path><path d="M210.661,60.5h-3.829a.832.832,0,0,0,0,1.665h3.829a.832.832,0,1,0,0-1.665Zm0,0" transform="translate(-190.704 -55.506)"></path></svg>