<?xml version="1.0" encoding="UTF-8"?>
<svg xmlns="http://www.w3.org/2000/svg" width="101.775" height="17.687" viewBox="0 0 101.775 17.687"><path d="M-39.928,0V-7.107a5.019,5.019,0,0,0-1.012-3.151,3.9,3.9,0,0,0-3.2-1.4,4.463,4.463,0,0,0-1.426.276A3.683,3.683,0,0,0-47.288-10.1h-.023v-7.337h-3.335V0h3.335V-6.371a2.426,2.426,0,0,1,.529-1.564,1.828,1.828,0,0,1,1.541-.644c1.311,0,1.978.92,1.978,2.231V0Zm3.542-11.431v7.176A4.9,4.9,0,0,0-35.351-1.15,3.934,3.934,0,0,0-32.177.23,3.638,3.638,0,0,0-29-1.426h.046V0h3.289V-11.431H-29V-5.06A2.339,2.339,0,0,1-29.532-3.5a1.863,1.863,0,0,1-1.518.621c-1.357,0-2-.851-2-2.185v-6.371Zm14.49-6V0h3.266V-1.38h.023A3.885,3.885,0,0,0-16.721-.023,5.611,5.611,0,0,0-15.134.23a5.3,5.3,0,0,0,4.025-1.886A6.384,6.384,0,0,0-9.614-5.727,6.571,6.571,0,0,0-11.04-9.775a5.175,5.175,0,0,0-4-1.886,4.732,4.732,0,0,0-1.541.253,3.941,3.941,0,0,0-1.932,1.334h-.046v-7.36Zm4.071,9.614a2.636,2.636,0,0,1,2-.8,2.757,2.757,0,0,1,2.024.8A2.9,2.9,0,0,1-13-5.727a2.862,2.862,0,0,1-.8,2.093,2.741,2.741,0,0,1-2.024.828,2.726,2.726,0,0,1-2-.828,2.807,2.807,0,0,1-.805-2.093A2.807,2.807,0,0,1-17.825-7.82ZM.529-11.431a4,4,0,0,0-.9-.115A3.09,3.09,0,0,0-3.335-9.775h-.023v-1.656H-6.532V0h3.289V-5.014c0-2.07,1.058-3.243,2.714-3.243a6.708,6.708,0,0,1,1.058.092Zm6.463-2.323a1.863,1.863,0,0,0,.529-1.311,1.863,1.863,0,0,0-.529-1.311,1.805,1.805,0,0,0-1.334-.552,1.755,1.755,0,0,0-1.311.552,1.863,1.863,0,0,0-.529,1.311,1.863,1.863,0,0,0,.529,1.311,1.769,1.769,0,0,0,1.311.529A1.785,1.785,0,0,0,6.992-13.754Zm5.083,0a1.791,1.791,0,0,0,.552-1.311,1.791,1.791,0,0,0-.552-1.311,1.791,1.791,0,0,0-1.311-.552,1.719,1.719,0,0,0-1.311.552,1.863,1.863,0,0,0-.529,1.311,1.863,1.863,0,0,0,.529,1.311,1.769,1.769,0,0,0,1.311.529A1.769,1.769,0,0,0,12.075-13.754ZM1.955-5.681a5.811,5.811,0,0,0,.851,3.036A5.863,5.863,0,0,0,5.037-.506,6.644,6.644,0,0,0,8.188.253a6.466,6.466,0,0,0,3.151-.782,5.869,5.869,0,0,0,2.277-2.162,5.813,5.813,0,0,0,.828-3.059,5.675,5.675,0,0,0-.828-3.036,5.759,5.759,0,0,0-2.254-2.139,6.316,6.316,0,0,0-3.128-.782,6.661,6.661,0,0,0-3.151.782A5.943,5.943,0,0,0,2.806-8.74,5.832,5.832,0,0,0,1.955-5.681ZM6.187-7.82a2.726,2.726,0,0,1,2-.828,2.741,2.741,0,0,1,2.024.828,2.807,2.807,0,0,1,.805,2.093,2.773,2.773,0,0,1-.805,2.093,2.726,2.726,0,0,1-2,.828,2.741,2.741,0,0,1-2.024-.828,2.9,2.9,0,0,1-.8-2.093A2.9,2.9,0,0,1,6.187-7.82ZM17.5-17.434V0h3.266V-1.38h.023A3.885,3.885,0,0,0,22.678-.023,5.611,5.611,0,0,0,24.265.23,5.3,5.3,0,0,0,28.29-1.656a6.384,6.384,0,0,0,1.5-4.071,6.571,6.571,0,0,0-1.426-4.048,5.175,5.175,0,0,0-4-1.886,4.732,4.732,0,0,0-1.541.253,3.941,3.941,0,0,0-1.932,1.334h-.046v-7.36ZM21.574-7.82a2.636,2.636,0,0,1,2-.8,2.757,2.757,0,0,1,2.024.8,2.9,2.9,0,0,1,.8,2.093,2.862,2.862,0,0,1-.8,2.093,2.741,2.741,0,0,1-2.024.828,2.726,2.726,0,0,1-2-.828,2.807,2.807,0,0,1-.805-2.093A2.807,2.807,0,0,1,21.574-7.82Zm15.18-5.52h2.737l3.4-4H39.054Zm-1.1,6.325a2.551,2.551,0,0,1,.782-1.334,2.343,2.343,0,0,1,1.7-.644,2.5,2.5,0,0,1,1.84.69,2.276,2.276,0,0,1,.6,1.288Zm-.069,2.231h8.28a7.726,7.726,0,0,0,.069-1.2,5.6,5.6,0,0,0-1.587-4.14,5.546,5.546,0,0,0-4.117-1.587,5.95,5.95,0,0,0-3.013.782A6.159,6.159,0,0,0,32.982-8.74a5.769,5.769,0,0,0-.828,3.013,5.934,5.934,0,0,0,.851,3.1A5.751,5.751,0,0,0,35.282-.506a6.644,6.644,0,0,0,3.151.759,5.725,5.725,0,0,0,3.151-.9,4.7,4.7,0,0,0,1.978-2.484L40.8-4.071a2.135,2.135,0,0,1-.966,1.1,2.8,2.8,0,0,1-1.449.437,2.89,2.89,0,0,1-1.863-.621A2.392,2.392,0,0,1,35.581-4.784ZM48.806.253a2.258,2.258,0,0,0,1.656-.69,2.224,2.224,0,0,0,.667-1.61A2.33,2.33,0,0,0,50.462-3.7a2.33,2.33,0,0,0-1.656-.667,2.276,2.276,0,0,0-1.633.667,2.258,2.258,0,0,0-.69,1.656,2.158,2.158,0,0,0,.69,1.61A2.208,2.208,0,0,0,48.806.253Z" transform="translate(50.646 17.434)" fill="#121212"/></svg>