<svg xmlns="http://www.w3.org/2000/svg" width="36.302" height="34.034" viewBox="0 0 36.302 34.034"><path d="M246.709,340a.709.709,0,1,0,.709.709A.709.709,0,0,0,246.709,340Zm0,0" transform="translate(-228.558 -315.893)"></path><path d="M34.175,12.763H31.623V2.127A2.129,2.129,0,0,0,29.5,0H2.127A2.129,2.129,0,0,0,0,2.127V19.144a2.129,2.129,0,0,0,2.127,2.127H4.68V31.906a2.129,2.129,0,0,0,2.127,2.127H34.175A2.129,2.129,0,0,0,36.3,31.906V14.89A2.129,2.129,0,0,0,34.175,12.763ZM1.418,5.672H30.2V8.508H1.418Zm.709-4.254H29.5a.71.71,0,0,1,.709.709V4.254H1.418V2.127A.71.71,0,0,1,2.127,1.418Zm0,18.435a.71.71,0,0,1-.709-.709V9.926H30.2v2.836H6.807A2.129,2.129,0,0,0,4.68,14.89v4.963ZM34.884,31.906a.71.71,0,0,1-.709.709H6.807a.71.71,0,0,1-.709-.709V14.89a.71.71,0,0,1,.709-.709H34.175a.71.71,0,0,1,.709.709Zm0,0"></path><path d="M293.8,240a3.547,3.547,0,0,0-2.127.71,3.545,3.545,0,1,0,0,5.669A3.545,3.545,0,1,0,293.8,240Zm-6.381,3.545a2.126,2.126,0,0,1,3.722-1.407h0a2.127,2.127,0,1,1-3.722,1.406Zm6.381,2.127a2.129,2.129,0,0,1-1.182-.359,3.537,3.537,0,0,0,0-3.535,2.127,2.127,0,1,1,1.182,3.895Zm0,0" transform="translate(-265.722 -222.983)"></path><path d="M129.545,400h-2.836a.709.709,0,1,0,0,1.418h2.836a.709.709,0,1,0,0-1.418Zm0,0" transform="translate(-117.066 -371.639)"></path><path d="M209.545,400h-2.836a.709.709,0,1,0,0,1.418h2.836a.709.709,0,1,0,0-1.418Zm0,0" transform="translate(-191.394 -371.639)"></path><path d="M289.545,400h-2.836a.709.709,0,1,0,0,1.418h2.836a.709.709,0,1,0,0-1.418Zm0,0" transform="translate(-265.722 -371.639)"></path><path d="M369.545,400h-2.836a.709.709,0,0,0,0,1.418h2.836a.709.709,0,1,0,0-1.418Zm0,0" transform="translate(-340.049 -371.639)"></path><path d="M126.709,341.418h5.672a.709.709,0,0,0,0-1.418h-5.672a.709.709,0,1,0,0,1.418Zm0,0" transform="translate(-117.066 -315.893)"></path></svg>